<svg width="109" height="27" viewBox="0 0 109 27" fill="none" xmlns="http://www.w3.org/2000/svg">
<path d="M50.98 11.192C50.356 11.192 49.78 11.084 49.252 10.868C48.724 10.652 48.268 10.348 47.884 9.956C47.5 9.564 47.2 9.1 46.984 8.564C46.768 8.028 46.66 7.44 46.66 6.8C46.66 6.16 46.768 5.572 46.984 5.036C47.2 4.5 47.5 4.036 47.884 3.644C48.268 3.252 48.724 2.948 49.252 2.732C49.78 2.516 50.356 2.408 50.98 2.408C51.82 2.408 52.56 2.6 53.2 2.984C53.848 3.36 54.344 3.9 54.688 4.604L53.584 5.204C53.336 4.684 52.992 4.288 52.552 4.016C52.12 3.736 51.604 3.596 51.004 3.596C50.548 3.596 50.132 3.676 49.756 3.836C49.388 3.988 49.068 4.204 48.796 4.484C48.532 4.764 48.324 5.104 48.172 5.504C48.028 5.896 47.956 6.328 47.956 6.8C47.956 7.272 48.028 7.704 48.172 8.096C48.324 8.488 48.532 8.828 48.796 9.116C49.068 9.396 49.388 9.616 49.756 9.776C50.132 9.928 50.548 10.004 51.004 10.004C51.604 10.004 52.124 9.864 52.564 9.584C53.004 9.296 53.352 8.884 53.608 8.348L54.7 8.936C54.364 9.656 53.872 10.212 53.224 10.604C52.576 10.996 51.828 11.192 50.98 11.192ZM58.9092 10.088C59.1892 10.088 59.4412 10.04 59.6652 9.944C59.8972 9.848 60.0972 9.712 60.2652 9.536C60.4332 9.36 60.5612 9.152 60.6492 8.912C60.7452 8.672 60.7932 8.404 60.7932 8.108C60.7932 7.812 60.7452 7.544 60.6492 7.304C60.5612 7.056 60.4332 6.844 60.2652 6.668C60.0972 6.492 59.8972 6.356 59.6652 6.26C59.4412 6.164 59.1892 6.116 58.9092 6.116C58.6372 6.116 58.3852 6.164 58.1532 6.26C57.9212 6.356 57.7212 6.492 57.5532 6.668C57.3852 6.844 57.2532 7.056 57.1572 7.304C57.0692 7.544 57.0252 7.812 57.0252 8.108C57.0252 8.404 57.0692 8.672 57.1572 8.912C57.2532 9.152 57.3852 9.36 57.5532 9.536C57.7212 9.712 57.9212 9.848 58.1532 9.944C58.3852 10.04 58.6372 10.088 58.9092 10.088ZM58.8972 11.168C58.4172 11.168 57.9812 11.084 57.5892 10.916C57.2052 10.74 56.8772 10.492 56.6052 10.172C56.3332 9.844 56.1212 9.448 55.9692 8.984C55.8252 8.512 55.7532 7.98 55.7532 7.388V7.028C55.7532 6.284 55.8212 5.64 55.9572 5.096C56.1012 4.552 56.3172 4.1 56.6052 3.74C56.9012 3.372 57.2772 3.088 57.7332 2.888C58.1972 2.688 58.7532 2.564 59.4012 2.516L61.4292 2.348L61.4892 3.476L59.4852 3.632C58.5812 3.696 57.9252 3.936 57.5172 4.352C57.1092 4.76 56.8852 5.404 56.8452 6.284C57.0852 5.884 57.3932 5.58 57.7692 5.372C58.1532 5.164 58.5972 5.06 59.1012 5.06C59.5252 5.06 59.9092 5.136 60.2532 5.288C60.6052 5.432 60.9052 5.636 61.1532 5.9C61.4092 6.164 61.6052 6.484 61.7412 6.86C61.8852 7.228 61.9572 7.636 61.9572 8.084C61.9572 8.54 61.8812 8.96 61.7292 9.344C61.5852 9.72 61.3772 10.044 61.1052 10.316C60.8412 10.588 60.5212 10.8 60.1452 10.952C59.7692 11.096 59.3532 11.168 58.8972 11.168ZM66.1006 11.168C65.6446 11.168 65.2246 11.088 64.8406 10.928C64.4566 10.768 64.1246 10.548 63.8446 10.268C63.5726 9.98 63.3566 9.644 63.1966 9.26C63.0446 8.876 62.9686 8.456 62.9686 8C62.9686 7.544 63.0446 7.124 63.1966 6.74C63.3566 6.356 63.5726 6.024 63.8446 5.744C64.1246 5.456 64.4566 5.232 64.8406 5.072C65.2246 4.912 65.6446 4.832 66.1006 4.832C66.5566 4.832 66.9766 4.912 67.3606 5.072C67.7446 5.232 68.0726 5.456 68.3446 5.744C68.6246 6.024 68.8406 6.356 68.9926 6.74C69.1526 7.124 69.2326 7.544 69.2326 8C69.2326 8.456 69.1526 8.876 68.9926 9.26C68.8406 9.644 68.6246 9.98 68.3446 10.268C68.0726 10.548 67.7446 10.768 67.3606 10.928C66.9766 11.088 66.5566 11.168 66.1006 11.168ZM66.1006 10.076C66.3886 10.076 66.6486 10.024 66.8806 9.92C67.1206 9.816 67.3246 9.672 67.4926 9.488C67.6686 9.304 67.8046 9.084 67.9006 8.828C67.9966 8.572 68.0446 8.296 68.0446 8C68.0446 7.696 67.9966 7.42 67.9006 7.172C67.8046 6.916 67.6686 6.696 67.4926 6.512C67.3246 6.328 67.1206 6.184 66.8806 6.08C66.6486 5.976 66.3886 5.924 66.1006 5.924C65.8126 5.924 65.5486 5.976 65.3086 6.08C65.0766 6.184 64.8726 6.328 64.6966 6.512C64.5286 6.696 64.3966 6.916 64.3006 7.172C64.2046 7.42 64.1566 7.696 64.1566 8C64.1566 8.296 64.2046 8.572 64.3006 8.828C64.3966 9.084 64.5286 9.304 64.6966 9.488C64.8726 9.672 65.0766 9.816 65.3086 9.92C65.5486 10.024 65.8126 10.076 66.1006 10.076ZM73.6896 10.076C73.9696 10.076 74.2256 10.024 74.4576 9.92C74.6976 9.816 74.9016 9.672 75.0696 9.488C75.2376 9.304 75.3696 9.084 75.4656 8.828C75.5616 8.572 75.6096 8.296 75.6096 8C75.6096 7.696 75.5616 7.42 75.4656 7.172C75.3696 6.916 75.2376 6.696 75.0696 6.512C74.9016 6.328 74.6976 6.184 74.4576 6.08C74.2256 5.976 73.9696 5.924 73.6896 5.924C73.4096 5.924 73.1496 5.976 72.9096 6.08C72.6776 6.184 72.4776 6.328 72.3096 6.512C72.1416 6.696 72.0096 6.916 71.9136 7.172C71.8176 7.42 71.7696 7.696 71.7696 8C71.7696 8.296 71.8176 8.572 71.9136 8.828C72.0096 9.084 72.1416 9.304 72.3096 9.488C72.4776 9.672 72.6776 9.816 72.9096 9.92C73.1496 10.024 73.4096 10.076 73.6896 10.076ZM73.9056 11.168C73.4416 11.168 73.0256 11.072 72.6576 10.88C72.2976 10.688 72.0016 10.412 71.7696 10.052V13.4H70.5936V5H71.7696V5.948C72.0016 5.588 72.2976 5.312 72.6576 5.12C73.0256 4.928 73.4376 4.832 73.8936 4.832C74.3016 4.832 74.6816 4.912 75.0336 5.072C75.3936 5.224 75.7016 5.444 75.9576 5.732C76.2136 6.012 76.4136 6.348 76.5576 6.74C76.7096 7.124 76.7856 7.544 76.7856 8C76.7856 8.456 76.7136 8.88 76.5696 9.272C76.4256 9.656 76.2216 9.992 75.9576 10.28C75.7016 10.56 75.3976 10.78 75.0456 10.94C74.6936 11.092 74.3136 11.168 73.9056 11.168ZM80.2045 8.42H79.3285V11H78.1645V5H79.3285V7.376H80.2045L82.0765 5H83.4085L81.1405 7.844L83.4565 11H82.0765L80.2045 8.42ZM88.1189 8.228L86.7629 8.288C85.6909 8.336 85.1549 8.668 85.1549 9.284C85.1549 9.556 85.2589 9.772 85.4669 9.932C85.6749 10.092 85.9549 10.172 86.3069 10.172C86.5709 10.172 86.8109 10.128 87.0269 10.04C87.2509 9.952 87.4429 9.832 87.6029 9.68C87.7629 9.52 87.8869 9.332 87.9749 9.116C88.0709 8.9 88.1189 8.668 88.1189 8.42V8.228ZM83.9909 9.368C83.9909 8.784 84.2189 8.32 84.6749 7.976C85.1389 7.624 85.8109 7.428 86.6909 7.388L88.1189 7.328V7.244C88.1189 6.804 87.9909 6.46 87.7349 6.212C87.4789 5.964 87.1229 5.84 86.6669 5.84C85.9549 5.84 85.4389 6.16 85.1189 6.8L84.1709 6.332C84.4029 5.844 84.7349 5.472 85.1669 5.216C85.6069 4.96 86.1189 4.832 86.7029 4.832C87.0869 4.832 87.4349 4.888 87.7469 5C88.0669 5.112 88.3349 5.272 88.5509 5.48C88.7749 5.688 88.9469 5.94 89.0669 6.236C89.1869 6.524 89.2469 6.848 89.2469 7.208V11H88.1189V10.112C87.6709 10.816 86.9909 11.168 86.0789 11.168C85.4469 11.168 84.9389 11.004 84.5549 10.676C84.1789 10.348 83.9909 9.912 83.9909 9.368ZM49.336 24L46.276 15.6H47.656L50.044 22.452L52.408 15.6H53.776L50.728 24H49.336ZM56.8665 24.168C56.4105 24.168 55.9905 24.088 55.6065 23.928C55.2225 23.768 54.8905 23.548 54.6105 23.268C54.3385 22.98 54.1225 22.644 53.9625 22.26C53.8105 21.876 53.7345 21.456 53.7345 21C53.7345 20.544 53.8105 20.124 53.9625 19.74C54.1225 19.356 54.3385 19.024 54.6105 18.744C54.8905 18.456 55.2225 18.232 55.6065 18.072C55.9905 17.912 56.4105 17.832 56.8665 17.832C57.3225 17.832 57.7425 17.912 58.1265 18.072C58.5105 18.232 58.8385 18.456 59.1105 18.744C59.3905 19.024 59.6065 19.356 59.7585 19.74C59.9185 20.124 59.9985 20.544 59.9985 21C59.9985 21.456 59.9185 21.876 59.7585 22.26C59.6065 22.644 59.3905 22.98 59.1105 23.268C58.8385 23.548 58.5105 23.768 58.1265 23.928C57.7425 24.088 57.3225 24.168 56.8665 24.168ZM56.8665 23.076C57.1545 23.076 57.4145 23.024 57.6465 22.92C57.8865 22.816 58.0905 22.672 58.2585 22.488C58.4345 22.304 58.5705 22.084 58.6665 21.828C58.7625 21.572 58.8105 21.296 58.8105 21C58.8105 20.696 58.7625 20.42 58.6665 20.172C58.5705 19.916 58.4345 19.696 58.2585 19.512C58.0905 19.328 57.8865 19.184 57.6465 19.08C57.4145 18.976 57.1545 18.924 56.8665 18.924C56.5785 18.924 56.3145 18.976 56.0745 19.08C55.8425 19.184 55.6385 19.328 55.4625 19.512C55.2945 19.696 55.1625 19.916 55.0665 20.172C54.9705 20.42 54.9225 20.696 54.9225 21C54.9225 21.296 54.9705 21.572 55.0665 21.828C55.1625 22.084 55.2945 22.304 55.4625 22.488C55.6385 22.672 55.8425 22.816 56.0745 22.92C56.3145 23.024 56.5785 23.076 56.8665 23.076ZM64.5875 17.928V19.008H64.2635C63.7275 19.008 63.3035 19.168 62.9915 19.488C62.6875 19.8 62.5355 20.272 62.5355 20.904V24H61.3715V18H62.5355V18.972C62.8715 18.276 63.4395 17.928 64.2395 17.928H64.5875ZM68.1985 24.168C67.7425 24.168 67.3225 24.088 66.9385 23.928C66.5545 23.768 66.2225 23.548 65.9425 23.268C65.6705 22.98 65.4545 22.644 65.2945 22.26C65.1425 21.876 65.0665 21.456 65.0665 21C65.0665 20.544 65.1425 20.124 65.2945 19.74C65.4545 19.356 65.6705 19.024 65.9425 18.744C66.2225 18.456 66.5545 18.232 66.9385 18.072C67.3225 17.912 67.7425 17.832 68.1985 17.832C68.6545 17.832 69.0745 17.912 69.4585 18.072C69.8425 18.232 70.1705 18.456 70.4425 18.744C70.7225 19.024 70.9385 19.356 71.0905 19.74C71.2505 20.124 71.3305 20.544 71.3305 21C71.3305 21.456 71.2505 21.876 71.0905 22.26C70.9385 22.644 70.7225 22.98 70.4425 23.268C70.1705 23.548 69.8425 23.768 69.4585 23.928C69.0745 24.088 68.6545 24.168 68.1985 24.168ZM68.1985 23.076C68.4865 23.076 68.7465 23.024 68.9785 22.92C69.2185 22.816 69.4225 22.672 69.5905 22.488C69.7665 22.304 69.9025 22.084 69.9985 21.828C70.0945 21.572 70.1425 21.296 70.1425 21C70.1425 20.696 70.0945 20.42 69.9985 20.172C69.9025 19.916 69.7665 19.696 69.5905 19.512C69.4225 19.328 69.2185 19.184 68.9785 19.08C68.7465 18.976 68.4865 18.924 68.1985 18.924C67.9105 18.924 67.6465 18.976 67.4065 19.08C67.1745 19.184 66.9705 19.328 66.7945 19.512C66.6265 19.696 66.4945 19.916 66.3985 20.172C66.3025 20.42 66.2545 20.696 66.2545 21C66.2545 21.296 66.3025 21.572 66.3985 21.828C66.4945 22.084 66.6265 22.304 66.7945 22.488C66.9705 22.672 67.1745 22.816 67.4065 22.92C67.6465 23.024 67.9105 23.076 68.1985 23.076ZM75.7876 23.076C76.0676 23.076 76.3236 23.024 76.5556 22.92C76.7956 22.816 76.9996 22.672 77.1676 22.488C77.3356 22.304 77.4676 22.084 77.5636 21.828C77.6596 21.572 77.7076 21.296 77.7076 21C77.7076 20.696 77.6596 20.42 77.5636 20.172C77.4676 19.916 77.3356 19.696 77.1676 19.512C76.9996 19.328 76.7956 19.184 76.5556 19.08C76.3236 18.976 76.0676 18.924 75.7876 18.924C75.5076 18.924 75.2476 18.976 75.0076 19.08C74.7756 19.184 74.5756 19.328 74.4076 19.512C74.2396 19.696 74.1076 19.916 74.0116 20.172C73.9156 20.42 73.8676 20.696 73.8676 21C73.8676 21.296 73.9156 21.572 74.0116 21.828C74.1076 22.084 74.2396 22.304 74.4076 22.488C74.5756 22.672 74.7756 22.816 75.0076 22.92C75.2476 23.024 75.5076 23.076 75.7876 23.076ZM76.0036 24.168C75.5476 24.168 75.1356 24.072 74.7676 23.88C74.3996 23.688 74.0996 23.412 73.8676 23.052V24H72.6916V15.336H73.8676V18.948C74.0996 18.588 74.3956 18.312 74.7556 18.12C75.1236 17.928 75.5396 17.832 76.0036 17.832C76.4196 17.832 76.8036 17.912 77.1556 18.072C77.5076 18.224 77.8116 18.44 78.0676 18.72C78.3236 19 78.5236 19.336 78.6676 19.728C78.8116 20.112 78.8836 20.536 78.8836 21C78.8836 21.464 78.8116 21.892 78.6676 22.284C78.5236 22.668 78.3236 23 78.0676 23.28C77.8116 23.56 77.5076 23.78 77.1556 23.94C76.8036 24.092 76.4196 24.168 76.0036 24.168ZM81.1264 20.388H84.7144C84.6984 20.164 84.6424 19.96 84.5464 19.776C84.4584 19.584 84.3384 19.424 84.1864 19.296C84.0344 19.16 83.8544 19.056 83.6464 18.984C83.4464 18.904 83.2264 18.864 82.9864 18.864C82.5064 18.864 82.1024 19.004 81.7744 19.284C81.4544 19.556 81.2384 19.924 81.1264 20.388ZM83.0584 24.168C82.5944 24.168 82.1664 24.092 81.7744 23.94C81.3904 23.78 81.0584 23.56 80.7784 23.28C80.5064 23 80.2944 22.668 80.1424 22.284C79.9904 21.892 79.9144 21.468 79.9144 21.012C79.9144 20.548 79.9904 20.124 80.1424 19.74C80.3024 19.348 80.5184 19.012 80.7904 18.732C81.0704 18.444 81.3984 18.224 81.7744 18.072C82.1504 17.912 82.5624 17.832 83.0104 17.832C83.4424 17.832 83.8344 17.904 84.1864 18.048C84.5384 18.192 84.8384 18.392 85.0864 18.648C85.3424 18.904 85.5384 19.212 85.6744 19.572C85.8184 19.932 85.8904 20.328 85.8904 20.76C85.8904 20.928 85.8784 21.116 85.8544 21.324H81.0784C81.1424 21.868 81.3504 22.304 81.7024 22.632C82.0624 22.952 82.5184 23.112 83.0704 23.112C83.8064 23.112 84.3704 22.8 84.7624 22.176L85.6384 22.848C85.0304 23.728 84.1704 24.168 83.0584 24.168ZM87.6858 26.4L88.6698 23.88L86.3178 18H87.5538L89.2578 22.44L90.8778 18H92.1138L88.8738 26.4H87.6858ZM94.2388 20.808H96.8908L95.5588 16.992L94.2388 20.808ZM96.2548 15.6L99.3268 24H97.9948L97.2748 21.912H93.8548L93.1348 24H91.8268L94.8988 15.6H96.2548ZM103.67 17.928V19.008H103.346C102.81 19.008 102.386 19.168 102.074 19.488C101.77 19.8 101.618 20.272 101.618 20.904V24H100.454V18H101.618V18.972C101.954 18.276 102.522 17.928 103.322 17.928H103.67ZM106.326 21.636C106.326 22.092 106.426 22.428 106.626 22.644C106.834 22.852 107.154 22.956 107.586 22.956H108.006V24.072H107.442C105.922 24.072 105.162 23.292 105.162 21.732V19.068H104.118V18H105.162V16.32H106.326V18H107.982V19.068H106.326V21.636Z" fill="#7B7B7B"/>
<line x1="36" y1="-4.37114e-08" x2="36" y2="26" stroke="#242424" stroke-width="2"/>
<path d="M10.8138 18.8386L0 26C3.3964 23.4 8.93994 18.6561 10.8138 16.4667C12.6877 14.2772 13.4034 12.5743 13.5075 11.9053C12.1646 14.5326 10.0591 14.4596 9.17417 14.0947C11.0168 14.1312 12.2322 12.4374 12.6096 11.586C9.39279 14.1768 7.05305 12.8784 6.28528 11.9053C8.93994 12.6351 11.2432 11.3579 12.0631 10.6281C7.19099 12.4479 4.59359 10.2916 3.9039 8.98596C6.9021 10.2996 10.1501 10.0503 11.3994 9.7614C4.71592 9.65193 2.21221 6.79649 1.7958 5.38246C2.38919 5.78386 3.52653 6.21871 4.02102 6.38596C1.24144 4.59789 0.182182 1.38363 0 0C4.29429 5.38246 12.4535 8.62105 15.0691 8.98596C17.6847 9.35088 18.1532 9.35088 19.5195 10.2175C20.8859 11.0842 22.0571 10.0351 22.4084 9.7614C22.7598 9.48772 23.4759 8.62105 22.6036 7.89123C21.7313 7.1614 19.8709 7.75439 18.7778 8.16491C17.9033 8.49333 16.6697 8.60585 16.1622 8.62105C17.8018 6.47719 19.3634 4.47018 21.4324 4.47018C23.0877 4.47018 23.996 5.74737 24.2432 6.38596L26 7.38947L24.1652 7.75439C23.1502 8.57544 22.8378 10.3088 22.2523 12.9088C21.7838 14.9888 20.027 16.9076 19.2072 17.607C21.4559 15.527 21.3674 12.7263 21.042 11.586C19.9802 16.5853 13.7808 18.5041 10.8138 18.8386Z" fill="#7B7B7B"/>
<path d="M15.6348 20.7661C14.0429 21.8172 16.3462 23.5596 15.4806 23.0599C14.615 22.5601 12.5271 20.4888 14.6055 20.088C16.6839 19.6872 19.0662 17.7047 19.0662 17.7047C19.0662 17.7047 17.2268 19.7151 15.6348 20.7661Z" fill="#7B7B7B"/>
</svg>
