<svg width="78" height="95" viewBox="0 0 78 95" fill="none" xmlns="http://www.w3.org/2000/svg">
<g clip-path="url(#clip0_342_8204)">
<rect x="7.7037" y="52.7778" width="50.0741" height="23.0303" fill="white"/>
<path d="M78 25.0143C77.9751 44.6754 77.9751 64.3365 77.9751 83.9976C77.9751 84.4664 77.9751 84.9351 77.9502 85.3791C77.801 88.4627 76.4325 90.9296 74.0192 92.8538C72.5761 94.0132 70.8593 94.5313 69.1177 94.9753H13.933C13.7589 94.926 13.6096 94.8273 13.4354 94.8026C9.62871 93.9886 6.91675 91.8177 5.74738 88.142C5.22489 86.5632 5.29953 84.8117 5.15025 83.1342C5.0756 82.2215 5.12537 81.3087 5.12537 80.4207C4.8268 80.396 4.578 80.396 4.32919 80.3713H11.3455V84.195C11.3455 87.2786 12.888 88.8081 15.9981 88.8081C33.0163 88.8081 50.0593 88.8081 67.0775 88.8081C70.2622 88.8081 71.755 87.3033 71.755 84.121C71.7053 65.2246 71.6555 46.3529 71.6058 27.4565V26.3711H70.4115C66.2067 26.3711 62.0019 26.4451 57.7723 26.3217C54.5876 26.223 51.6766 23.3368 51.577 20.2038C51.4278 15.9114 51.5024 11.619 51.4526 7.32666C51.4526 6.95662 51.4029 6.61126 51.4029 6.21656C51.0546 6.19189 50.8306 6.19189 50.5818 6.19189C39.0125 6.19189 27.4431 6.21656 15.8737 6.24122C12.9378 6.24122 11.3703 7.82004 11.3703 10.731C11.3703 22.6954 11.3703 34.6598 11.3703 46.6242V47.537H5.15025V46.3035C5.15025 34.4131 5.15025 22.498 5.15025 10.6076C5.15025 4.39106 9.52919 0.0493271 15.7991 0.0493271C28.1895 0.0493271 40.555 0.0493271 52.9206 0.0246582C53.5675 0.0246582 54.0153 0.22201 54.4632 0.66605C62.0517 8.19007 69.6402 15.6894 77.2536 23.1888C77.801 23.7068 78 24.2742 78 25.0143Z" fill="white"/>
<path d="M29.6574 69.887C29.6574 66.236 29.6574 62.5603 29.6574 58.9093C31.7971 58.1939 34.5091 58.9093 35.778 60.5374C37.1215 62.2643 37.1464 65.8659 35.8277 67.8394C34.6335 69.6403 32.021 70.5284 29.6574 69.887Z" fill="#C30000"/>
<path d="M14.7043 63.7938C14.7043 62.067 14.7043 60.4388 14.7043 58.8353C16.2718 58.3173 18.0383 58.638 18.8096 59.5754C19.4316 60.3401 19.5311 61.6229 18.9589 62.5357C17.9139 64.0898 16.3464 63.9418 14.7043 63.7938Z" fill="#C30000"/>
<path d="M64.4153 52.3473C64.4153 49.0664 62.8479 47.4875 59.5636 47.4875C43.9139 47.4875 28.2641 47.4875 12.5895 47.4875H11.3206H5.10048V47.5122C4.67751 47.5122 4.32919 47.4876 3.98086 47.5122C1.79139 47.6109 0.124402 49.1897 0.0497608 51.3359C0 52.52 0 53.7288 0 54.9129C0 56.097 0 57.3058 0 58.4899C0 64.2624 0 70.0596 0 75.8321C0 78.225 1.19426 79.8532 3.28421 80.2725C3.60766 80.3465 3.95598 80.3959 4.32919 80.4206L11.3455 80.3712H12.5895C26.3732 80.3712 40.1569 80.3465 53.9407 80.3712C55.8067 80.3712 57.6727 80.3712 59.5388 80.3959C59.7378 80.3959 59.9368 80.3959 60.1359 80.3712C62.8727 80.1492 64.49 78.299 64.4651 75.5608C64.3656 67.8147 64.4153 60.0934 64.4153 52.3473ZM23.1388 61.2281C23.0392 64.0157 21.4718 65.9399 18.71 66.532C17.4411 66.8033 16.1225 66.828 14.7043 66.976V72.8965H10.823V56.0477C13.6593 55.7023 16.4957 55.3323 19.3072 56.097C21.845 56.7631 23.2383 58.7366 23.1388 61.2281ZM40.9282 64.2131C40.7541 69.3935 38.0421 72.3538 32.6431 72.8965C30.4038 73.1186 28.1148 72.9459 25.7512 72.9459V56.0477C28.5876 55.7023 31.4239 55.4803 34.2354 55.9983C38.689 56.8124 41.0775 59.748 40.9282 64.2131ZM53.5924 62.881V66.0139H47.4718V72.8719H43.5656V55.8997H54.0402V58.9586H47.5215V62.881H53.5924Z" fill="#C30000"/>
</g>
<defs>
<clipPath id="clip0_342_8204">
<rect width="78" height="95" fill="white"/>
</clipPath>
</defs>
</svg>
