<svg width="282" height="136" viewBox="0 0 282 136" fill="none" xmlns="http://www.w3.org/2000/svg">
<g opacity="0.2">
<path d="M0 68.9397C0 67.4624 0 66.0399 0 64.5626C2.20269 59.8572 5.94728 58.3799 11.0685 58.4893C26.4874 58.7082 41.9063 58.5988 57.3251 58.5441C61.5653 58.5441 64.7042 56.5196 65.9156 53.0179C67.8981 47.3277 64.4839 42.7317 58.041 42.677C44.5495 42.6223 31.058 42.677 17.5665 42.6223C12.0047 42.677 8.26011 39.3394 8.26011 34.4699C8.26011 29.6003 12.0598 26.2628 17.6216 26.2628C20.5401 26.2628 23.4036 26.2628 26.4323 26.2628C26.4323 20.4631 26.4323 15.1011 26.4323 9.7391C26.4323 3.1187 29.5712 0 36.1793 0C84.6385 0 133.043 0 181.502 0C182.493 0 183.429 0 184.531 0C184.531 16.1954 184.531 31.953 184.531 47.7107C184.531 54.3311 187.67 57.4498 194.278 57.4498C214.542 57.4498 234.807 57.4498 255.072 57.4498C268.288 57.4498 278.586 65.5475 281.559 78.1317C281.615 78.3506 281.835 78.5694 282 78.7883C282 97.391 282 115.994 282 134.597C279.797 139.302 276.053 140.998 270.876 140.67C267.077 140.396 263.222 140.615 259.533 140.615C253.365 157.248 243.453 165.401 229.301 165.784C222.692 165.948 216.58 164.252 211.073 160.695C203.749 155.935 199.289 149.151 197.251 140.779C169.222 140.779 141.358 140.779 113.604 140.779C107.602 157.084 97.6895 165.346 83.7024 165.784C77.0943 166.002 70.9818 164.361 65.42 160.859C57.8207 156.099 53.3052 149.205 51.2127 140.615C45.6509 140.615 40.2542 140.67 34.8576 140.615C30.5624 140.56 27.2033 137.77 26.5425 133.666C26.3773 132.682 26.4323 131.642 26.4323 130.657C26.4323 123.107 26.4323 115.556 26.4323 107.787C21.1459 107.787 16.0797 107.568 11.1236 107.841C5.94728 108.17 2.20269 106.528 0 101.768C0 100.291 0 98.8683 0 97.391C2.20269 92.6856 5.94728 91.2631 11.0685 91.3178C34.5272 91.4819 58.041 91.3725 81.4997 91.4272C85.3544 91.4272 88.3281 90.1688 90.0352 86.6124C92.7885 80.9221 88.5483 75.013 81.775 74.9583C58.2062 74.9583 34.6374 74.8489 11.0685 75.013C5.94728 75.0677 2.20269 73.6451 0 68.9397ZM82.6011 119.277C74.1207 119.222 67.2373 125.897 67.1822 134.159C67.1271 142.53 73.9004 149.26 82.3257 149.315C90.5308 149.369 97.4142 142.64 97.4692 134.432C97.5243 126.225 90.8061 119.386 82.6011 119.277ZM213.111 134.214C213.056 142.585 219.829 149.315 228.254 149.369C236.459 149.424 243.343 142.694 243.398 134.432C243.453 126.171 236.735 119.331 228.53 119.277C220.049 119.222 213.166 125.897 213.111 134.214Z" fill="#1F2744"/>
<path d="M201.216 1.86035C223.849 6.18276 235.909 22.3234 246.261 40.8168C231.173 40.8168 216.305 40.8168 201.216 40.8168C201.216 27.9042 201.216 14.937 201.216 1.86035Z" fill="#1F2744"/>
</g>
</svg>
