<svg width="282" height="198" viewBox="0 0 282 198" fill="none" xmlns="http://www.w3.org/2000/svg">
<g opacity="0.2">
<path d="M230.585 32.4168C219.723 44.8307 208.957 57.2445 197.998 69.8524C196.834 68.9796 195.865 68.2037 194.798 67.5248C166.963 47.8371 136.996 43.6668 105.767 57.0506C74.5381 70.4343 56.3052 95.0681 51.941 128.818C45.54 178.668 81.327 223.377 131.274 229.099C181.026 234.821 226.802 196.901 230.488 147.148C231.167 137.547 230.488 128.043 228.354 118.635C228.063 117.471 227.966 115.726 228.645 114.95C237.18 104.863 245.811 94.9712 254.637 84.6909C261.619 91.4797 268.893 97.5897 275.003 104.766C282.859 113.883 283.926 124.648 279.076 135.704C277.234 140.068 275.197 144.336 272.676 148.312C265.499 159.756 264.335 172.073 266.76 185.069C267.438 188.948 267.826 193.022 268.214 196.998C269.378 209.509 263.074 220.953 251.727 226.384C245.714 229.293 239.604 231.815 233.397 234.337C225.542 237.537 219.238 242.58 214.776 249.854C211.673 254.897 208.278 259.843 205.078 264.789C196.737 277.397 184.324 281.955 169.776 277.591C164.442 276.039 159.108 274.585 153.774 272.742C144.948 269.736 136.317 270.026 127.491 272.936C120.314 275.264 112.944 277.785 105.476 278.852C94.1288 280.598 84.8184 275.942 78.1265 266.632C74.2472 261.201 70.6588 255.576 67.1674 249.951C62.7061 242.871 56.6931 237.731 48.9345 234.53C43.9883 232.494 39.1391 230.36 34.2899 228.227C17.9967 221.244 11.7898 210.382 14.0204 192.828C14.7962 186.718 15.3781 180.511 16.251 174.401C17.1239 168 15.9601 162.084 13.1475 156.459C9.94707 150.155 6.74661 143.948 3.64314 137.644C-2.85476 124.357 -0.624138 111.361 10.0441 101.178C14.1174 97.2988 17.9967 93.4194 22.264 89.734C29.5377 83.4301 33.805 75.5744 35.6477 66.167C36.7145 60.736 38.0723 55.3049 39.3331 49.8738C42.6305 36.684 52.5229 28.0525 66.0036 26.7917C74.3442 26.0158 82.6847 26.1128 90.9283 24.7551C95.8745 23.9792 100.918 21.7486 105.185 19.13C111.004 15.6386 116.241 11.2743 121.575 7.20103C134.377 -2.40034 147.373 -2.40034 160.272 7.20103C164.733 10.4985 169.194 13.7959 173.655 17.1903C180.638 22.5244 188.591 25.046 197.222 25.5309C203.817 25.9189 210.509 26.0158 217.104 26.9857C221.662 27.6646 226.026 29.5072 230.391 30.865C230.585 31.4469 230.585 31.9318 230.585 32.4168Z" fill="#1F2744"/>
<path d="M144.851 148.409C170.94 118.344 196.737 88.5702 222.438 58.8932C232.621 47.1582 242.708 35.4232 252.891 23.7852C258.807 16.9963 268.117 16.2204 274.518 21.8455C280.919 27.5675 281.113 36.781 275.197 43.5698C249.593 72.9558 223.99 102.342 198.386 131.728C184.614 147.536 170.843 163.248 156.78 178.765C149.506 186.815 140.681 186.718 133.116 179.056C119.732 165.672 106.349 152.385 93.0619 138.905C87.6309 133.474 86.952 125.521 91.0253 119.605C95.0986 113.689 102.857 111.361 109.355 114.368C111.489 115.338 113.428 116.986 115.174 118.635C124.097 127.461 133.019 136.383 141.942 145.306C142.718 146.372 143.687 147.342 144.851 148.409Z" fill="#1F2744"/>
</g>
</svg>
