<svg width="282" height="232" viewBox="0 0 282 232" fill="none" xmlns="http://www.w3.org/2000/svg">
<g opacity="0.2">
<path d="M0 241.747C0.451441 239.414 0.902882 237.082 1.42956 234.824C5.49253 216.842 15.8004 203.75 32.0523 195.323C48.6804 186.671 66.1361 179.974 84.1937 174.858C89.7615 173.278 92.3949 174.632 94.3511 180.05C102.402 202.471 110.453 224.893 118.503 247.314C118.879 248.443 119.331 249.496 120.083 251.377C121.287 245.509 122.34 240.317 123.394 235.125C124.748 228.203 126.253 221.281 127.457 214.359C127.758 212.704 127.683 210.898 127.156 209.318C123.544 198.258 119.782 187.273 116.246 176.137C115.719 174.557 115.569 172.676 115.87 171.021C116.321 168.463 118.729 166.582 121.814 166.582C134.68 166.506 147.546 166.431 160.337 166.582C165.303 166.657 167.71 170.72 166.055 175.761C163.045 185.091 160.186 194.496 156.65 203.6C154.543 209.168 154.318 214.359 155.672 220.153C157.929 229.482 159.509 239.038 161.39 248.443C161.541 249.12 161.766 249.797 162.142 251.076C165.528 241.671 168.688 232.793 171.848 223.915C177.115 209.243 182.382 194.571 187.649 179.974C189.605 174.482 192.239 173.128 197.806 174.708C216.616 180.05 234.975 186.821 252.054 196.377C271.316 207.211 281.172 224.216 281.925 246.261C282.075 251.528 282.226 257.02 281.022 262.137C278.313 274.025 268.532 281.323 256.268 281.774C255.591 281.774 254.989 281.774 254.312 281.774C178.695 281.774 103.079 281.774 27.4627 281.774C18.2834 281.774 10.6089 278.689 4.96585 271.241C2.18196 267.704 0.902882 263.34 0 258.826C0 253.183 0 247.465 0 241.747Z" fill="#1F2744"/>
<path d="M146.492 0C150.555 0.677161 154.694 1.1286 158.606 2.18196C189.455 10.3831 209.092 30.0208 216.014 61.0197C221.582 85.849 215.412 108.647 198.408 127.758C181.554 146.718 160.036 155.446 134.755 153.415C109.7 151.383 90.1376 139.345 76.2934 118.428C68.0923 106.013 64.0293 92.1692 64.1045 77.3469C64.255 52.5928 74.0362 32.2028 93.373 16.6281C105.261 7.07257 118.955 1.80576 134.153 0.376201C134.605 0.300961 135.056 0.15048 135.432 0C139.119 0 142.806 0 146.492 0Z" fill="#1F2744"/>
</g>
</svg>
