<svg width="27" height="31" viewBox="0 0 27 31" fill="none" xmlns="http://www.w3.org/2000/svg">
<g opacity="0.6" clip-path="url(#clip0_691_567)">
<path d="M5.81845 30.9998C5.23966 30.8558 4.70598 30.6435 4.27001 30.2114C3.68371 29.6276 3.48827 28.8998 3.42814 28.1038C3.18009 24.9651 2.917 21.834 2.66143 18.6953C2.45097 16.1329 2.24801 13.5704 2.03755 11.0079C1.98493 10.3938 1.93983 9.77971 1.87218 9.17321C1.85715 9.06707 1.75943 8.91544 1.66171 8.86995C0.59434 8.37717 -0.0821634 7.3082 0.00803707 6.22407C0.113271 4.96558 0.902525 4.00275 2.09016 3.71466C2.35325 3.65401 2.62385 3.63885 2.89445 3.63885C4.21739 3.63126 5.53281 3.63885 6.85575 3.63885C6.96099 3.63885 7.07374 3.63885 7.20904 3.63885C7.20904 3.35076 7.20904 3.09299 7.20904 2.82764C7.21656 1.1825 8.37413 0.00739497 10.0053 0.00739497C12.3354 -0.000186344 14.6656 -0.000186344 16.9958 0.00739497C18.6344 0.0149763 19.7845 1.1825 19.7995 2.82764C19.7995 3.08541 19.7995 3.34317 19.7995 3.63885C19.9348 3.63885 20.0401 3.63885 20.1528 3.63885C21.5058 3.63885 22.8513 3.63126 24.2043 3.63885C25.5272 3.64643 26.527 4.3894 26.8953 5.63273C27.2711 6.89123 26.6322 8.30135 25.4295 8.82447C25.2341 8.90786 25.1364 8.99884 25.1213 9.22627C24.956 11.3339 24.7756 13.4491 24.6027 15.5567C24.4298 17.634 24.2569 19.7188 24.084 21.7961C23.9112 23.8658 23.7308 25.9355 23.5879 28.0052C23.5128 29.0211 23.2497 29.9233 22.3552 30.4919C22.0019 30.7193 21.5735 30.8254 21.1826 30.9922C16.0637 30.9998 10.9448 30.9998 5.81845 30.9998ZM3.68371 9.09739C3.82652 10.8411 3.96182 12.5696 4.10464 14.2982C4.29256 16.6105 4.48799 18.9228 4.67591 21.2275C4.86383 23.5246 5.04423 25.8294 5.23966 28.1265C5.30731 28.8998 5.6155 29.1727 6.3822 29.1727C11.1328 29.1727 15.8833 29.1727 20.6339 29.1727C20.7241 29.1727 20.8143 29.1727 20.9045 29.1651C21.3404 29.1272 21.6712 28.824 21.7388 28.3918C21.7614 28.2251 21.7764 28.0507 21.7914 27.8839C21.8967 26.5572 22.0094 25.2304 22.1147 23.9037C22.2875 21.8037 22.4604 19.7037 22.6333 17.6036C22.7836 15.7765 22.934 13.9494 23.0843 12.1148C23.167 11.114 23.2497 10.1133 23.3249 9.08981C16.7703 9.09739 10.2308 9.09739 3.68371 9.09739ZM13.5005 7.2703C17.0108 7.2703 20.5211 7.2703 24.0314 7.2703C24.1517 7.2703 24.272 7.27788 24.3922 7.26271C25.0086 7.19448 25.3769 6.54249 25.1138 5.98147C24.9184 5.5645 24.5576 5.45078 24.1216 5.45078C17.0409 5.45836 9.96015 5.45078 2.87942 5.45078C2.78922 5.45078 2.69902 5.45078 2.60882 5.45836C2.1503 5.51143 1.80453 5.89808 1.80453 6.36054C1.80453 6.823 2.1503 7.20965 2.61633 7.26271C2.7366 7.27788 2.85687 7.2703 2.97713 7.2703C6.47992 7.2703 9.99022 7.2703 13.5005 7.2703ZM18.003 3.62368C18.003 3.34317 18.003 3.09299 18.003 2.84281C17.9955 2.17565 17.6422 1.81933 16.9808 1.81933C16.1314 1.81933 15.282 1.81933 14.4326 1.81933C12.9518 1.81933 11.4785 1.81933 9.99774 1.81933C9.47157 1.81933 9.0807 2.09984 9.02808 2.56988C8.9905 2.91104 9.02057 3.26736 9.02057 3.62368C12.0122 3.62368 14.9888 3.62368 18.003 3.62368Z" fill="white"/>
<path d="M9.77262 24.298C9.81772 25.003 9.87785 25.7081 9.89288 26.4132C9.91543 27.1182 9.2239 27.5655 8.60753 27.2699C8.29183 27.1182 8.12646 26.8529 8.10391 26.5041C7.97612 24.5406 7.86337 22.5846 7.74311 20.621C7.59277 18.1571 7.43492 15.6932 7.28459 13.2293C7.25452 12.7744 7.21694 12.3271 7.20942 11.8722C7.19439 11.3339 7.57022 10.9245 8.07384 10.9094C8.57746 10.8942 8.96833 11.2733 9.00591 11.8191C9.26148 15.9737 9.51705 20.1358 9.77262 24.298Z" fill="white"/>
<path d="M17.2066 24.7529C17.417 21.3261 17.62 17.8918 17.8304 14.465C17.8831 13.6008 17.9432 12.7365 17.9958 11.8722C18.0334 11.2809 18.4092 10.8866 18.9279 10.9094C19.4616 10.9245 19.8224 11.3567 19.7923 11.9632C19.7171 13.3581 19.6194 14.7607 19.5367 16.1557C19.424 17.9752 19.3112 19.7947 19.1985 21.6142C19.1008 23.2442 19.003 24.8742 18.8978 26.5041C18.8602 27.0197 18.4468 27.3912 17.9582 27.3608C17.4696 27.3381 17.0938 26.9363 17.1088 26.4132C17.1239 25.8597 17.1765 25.3063 17.2066 24.7529Z" fill="white"/>
<path d="M12.6064 19.1352C12.6064 16.7243 12.6064 14.3135 12.6064 11.9026C12.6064 11.19 13.1852 10.7427 13.8016 10.9625C14.1699 11.0914 14.3654 11.3719 14.4029 11.751C14.4105 11.8495 14.4105 11.9557 14.4105 12.0542C14.4105 16.7774 14.4105 21.493 14.4105 26.2161C14.4105 26.9439 14.0797 27.3609 13.5084 27.3609C12.9372 27.3609 12.6064 26.9364 12.6064 26.2161C12.6064 23.8508 12.6064 21.493 12.6064 19.1352Z" fill="white"/>
</g>
<defs>
<clipPath id="clip0_691_567">
<rect width="27" height="31" fill="white"/>
</clipPath>
</defs>
</svg>
