<svg width="129" height="129" viewBox="0 0 129 129" fill="none" xmlns="http://www.w3.org/2000/svg">
<circle opacity="0.6" cx="65" cy="64" r="55" fill="#C30000"/>
<circle cx="64.5" cy="64.5" r="64.5" fill="#C30000"/>
<circle opacity="0.2" cx="64.2919" cy="64.2914" r="32.4847" stroke="white" stroke-width="2"/>
<path d="M118.195 74.9634L107.665 73.5348L107.855 72.1358L117.061 73.3847L117.718 68.5408L108.512 67.2918L108.702 65.8928L119.232 67.3214L118.195 74.9634Z" fill="white"/>
<path d="M114.76 85.7265C114.374 86.6292 113.751 87.2491 112.892 87.5862C112.038 87.9366 111.164 87.9208 110.271 87.539C109.386 87.1612 108.771 86.5405 108.425 85.6771C108.074 84.8229 108.092 83.9445 108.478 83.0418L109.438 80.7943L105.949 79.3028L106.503 78.0045L116.275 82.1807L114.76 85.7265ZM109.692 83.5608C109.462 84.1006 109.452 84.6249 109.664 85.1336C109.885 85.6464 110.27 86.0201 110.819 86.2547C111.378 86.4934 111.914 86.5134 112.428 86.3149C112.942 86.1164 113.315 85.7472 113.545 85.2074L114.506 82.9599L110.653 81.3133L109.692 83.5608Z" fill="white"/>
<path d="M101.856 90.0528L98.8817 93.9891L97.8159 93.1836L101.642 88.121L110.12 94.528L106.34 99.53L105.274 98.7246L108.203 94.8489L105.599 92.881L102.899 96.454L101.845 95.6577L104.545 92.0847L101.856 90.0528Z" fill="white"/>
<path d="M94.3817 103.806C93.8122 103.975 93.2685 103.985 92.7508 103.835C92.233 103.685 91.7807 103.376 91.3937 102.908C90.8133 102.206 90.6045 101.414 90.7673 100.531C90.9223 99.6541 91.4327 98.8578 92.2985 98.142C93.0863 97.4907 93.8671 97.1406 94.6409 97.0917C95.4069 97.0493 96.1163 97.2244 96.7692 97.617L96.2802 98.9077C95.2774 98.1872 94.234 98.2752 93.1498 99.1716C92.5804 99.6424 92.2429 100.132 92.1372 100.639C92.038 101.154 92.1626 101.623 92.5108 102.044C92.8591 102.465 93.2878 102.682 93.797 102.694C94.2984 102.713 94.8104 102.506 95.333 102.074L96.2924 101.281L97.1147 102.276L96.4244 102.846C95.9252 103.259 95.6273 103.709 95.5309 104.196C95.4408 104.69 95.5603 105.137 95.8892 105.534C96.2116 105.924 96.6132 106.124 97.0939 106.134C97.5733 106.158 98.0587 105.966 98.5501 105.56C99.4549 104.812 99.7272 103.911 99.3672 102.856L100.715 102.628C101.159 104.165 100.718 105.482 99.3917 106.578C98.6039 107.229 97.7876 107.537 96.9429 107.5C96.0903 107.469 95.3868 107.119 94.8321 106.448C94.1872 105.668 94.0371 104.787 94.3817 103.806Z" fill="white"/>
<path d="M86.1473 104.185L81.7175 106.358L81.1292 105.158L86.8266 102.364L91.506 111.905L85.8768 114.666L85.2886 113.466L89.6502 111.327L88.2129 108.397L84.192 110.369L83.6105 109.183L87.6313 107.211L86.1473 104.185Z" fill="white"/>
<path d="M72.7049 118.392L71.336 118.669L69.2255 108.254L70.5944 107.977L71.5441 112.664L76.6028 111.639L75.6531 106.952L77.0368 106.671L79.1473 117.086L77.7636 117.367L76.8682 112.948L71.8094 113.973L72.7049 118.392Z" fill="white"/>
<path d="M57.8194 118.654L57.8967 117.32L61.0339 117.502L61.5714 108.227L62.9657 108.308L62.4283 117.583L65.5503 117.764L65.473 119.097L57.8194 118.654Z" fill="white"/>
<path d="M48.1251 105.303L48.2124 107.837L52.7609 109.313L54.3197 107.313L55.7493 107.777L48.7001 116.662L47.184 116.17L46.6956 104.839L48.1251 105.303ZM51.8912 110.419L48.2668 109.243L48.4694 114.815L51.8912 110.419Z" fill="white"/>
<path d="M36.131 99.898L35.1934 99.252L37.1056 96.4768L38.2682 97.2778L37.114 98.9529L43.2395 103.173L37.2103 111.924L36.0477 111.123L41.319 103.472L37.2936 100.699L32.0223 108.35L30.8597 107.549L36.131 99.898Z" fill="white"/>
<path d="M28.5413 89.9799L22.3973 94.9848L31.993 94.2171L32.7121 95.0998L24.4731 101.811L23.5814 100.717L29.7371 95.7023L20.1297 96.4797L19.4106 95.5969L27.6496 88.8852L28.5413 89.9799Z" fill="white"/>
<path d="M12.9429 83.1282L22.6512 78.8067L23.2192 80.0826L19.5023 81.7371L20.3604 83.6649L25.1947 84.5207L25.843 85.977L20.8946 85.0889C21.0337 85.8246 20.9272 86.5311 20.5752 87.2085C20.2231 87.8859 19.7049 88.3769 19.0207 88.6814C18.1886 89.0518 17.3516 89.0755 16.5098 88.7522C15.6547 88.4239 15.0419 87.8437 14.6715 87.0115L12.9429 83.1282ZM19.4979 84.8631L18.3373 82.2557L14.7174 83.867L15.8781 86.4744C16.088 86.946 16.4447 87.2746 16.9484 87.4603C17.452 87.646 17.9535 87.6277 18.4528 87.4055C18.952 87.1832 19.3058 86.8208 19.5142 86.3182C19.7132 85.8197 19.7078 85.3347 19.4979 84.8631Z" fill="white"/>
<path d="M10.4011 54.975L20.966 56.1198L20.8139 57.5234L11.5772 56.5225L11.0506 61.3824L20.2873 62.3833L20.1352 63.7869L9.57031 62.6421L10.4011 54.975Z" fill="white"/>
<path d="M13.4627 44.3054C13.8213 43.3916 14.4251 42.7533 15.2741 42.3907C16.1174 42.0149 16.9913 42.0045 17.8957 42.3594C18.7907 42.7106 19.4243 43.3126 19.7963 44.1653C20.1721 45.0086 20.1807 45.8871 19.822 46.801L18.9292 49.0762L22.4621 50.4627L21.9464 51.7769L12.0541 47.8949L13.4627 44.3054ZM18.5926 46.3185C18.807 45.7721 18.8008 45.2478 18.5738 44.7456C18.3375 44.2397 17.9414 43.8777 17.3855 43.6595C16.8202 43.4377 16.2836 43.4337 15.7757 43.6475C15.2678 43.8613 14.9066 44.2415 14.6922 44.7879L13.7993 47.0631L17.6997 48.5938L18.5926 46.3185Z" fill="white"/>
<path d="M26.3091 39.4482L29.1822 35.4372L30.2682 36.2152L26.573 41.3739L17.9339 35.1857L21.585 30.0887L22.671 30.8666L19.8421 34.8159L22.4955 36.7166L25.1034 33.0758L26.1772 33.8449L23.5693 37.4857L26.3091 39.4482Z" fill="white"/>
<path d="M33.4042 25.5076C33.9692 25.3243 34.5125 25.3009 35.0339 25.4374C35.5553 25.5738 36.0153 25.8711 36.4141 26.3291C37.0122 27.0161 37.2411 27.803 37.1008 28.69C36.9682 29.5704 36.4782 30.3794 35.631 31.117C34.86 31.7882 34.0884 32.1581 33.3161 32.2266C32.5514 32.2885 31.8377 32.1316 31.1751 31.7557L31.631 30.453C32.6518 31.1477 33.6927 31.0332 34.7537 30.1095C35.311 29.6243 35.6359 29.1267 35.7286 28.6166C35.8146 28.0989 35.6782 27.634 35.3193 27.2218C34.9605 26.8096 34.5264 26.6038 34.017 26.6045C33.5153 26.5984 33.0087 26.8181 32.4973 27.2633L31.5584 28.0807L30.7111 27.1075L31.3866 26.5194C31.8751 26.094 32.1614 25.6368 32.2455 25.1476C32.3229 24.6509 32.1921 24.2078 31.8532 23.8185C31.5209 23.4369 31.1144 23.2473 30.6335 23.25C30.1537 23.2383 29.6734 23.4418 29.1925 23.8605C28.307 24.6313 28.0577 25.5395 28.4445 26.5849L27.1029 26.8472C26.6201 25.3217 27.0276 23.9941 28.3252 22.8643C29.0962 22.1931 29.9044 21.8652 30.7498 21.8807C31.6028 21.8895 32.3151 22.2221 32.8866 22.8785C33.5512 23.6419 33.7237 24.5182 33.4042 25.5076Z" fill="white"/>
<path d="M41.3778 25.0327L45.7412 22.7298L46.3648 23.9113L40.7527 26.8732L35.7926 17.475L41.3375 14.5486L41.9611 15.73L37.6648 17.9975L39.1883 20.8841L43.1489 18.7938L43.7654 19.9618L39.8047 22.0521L41.3778 25.0327Z" fill="white"/>
<path d="M54.5668 10.3531L55.9277 10.0392L58.3155 20.3943L56.9545 20.7081L55.88 16.0483L50.8505 17.2081L51.925 21.8678L50.5492 22.1851L48.1615 11.8301L49.5372 11.5128L50.5503 15.9063L55.5799 14.7466L54.5668 10.3531Z" fill="white"/>
<path d="M69.3987 9.64903L69.3575 10.9843L66.2165 10.8873L65.9297 20.1737L64.5337 20.1306L64.8205 10.8442L61.6947 10.7477L61.736 9.41235L69.3987 9.64903Z" fill="white"/>
<path d="M79.5605 22.7216L79.4062 20.1907L74.8202 18.8353L73.3149 20.8757L71.8736 20.4497L78.6853 11.3818L80.2139 11.8336L81.0018 23.1476L79.5605 22.7216ZM75.6604 17.7064L79.3146 18.7864L78.9647 13.2215L75.6604 17.7064Z" fill="white"/>
<path d="M91.5765 27.6868L92.5326 28.3051L90.7026 31.1352L89.517 30.3685L90.6216 28.6603L84.3751 24.6211L90.1453 15.6974L91.3309 16.4641L86.286 24.2659L90.3909 26.9202L95.4358 19.1184L96.6213 19.885L91.5765 27.6868Z" fill="white"/>
<path d="M99.5914 37.5092L105.606 32.3493L96.0328 33.3613L95.2915 32.4971L103.357 25.5777L104.276 26.6493L98.2501 31.819L107.835 30.7972L108.576 31.6613L100.511 38.5807L99.5914 37.5092Z" fill="white"/>
<path d="M115.369 43.9088L105.777 48.4817L105.176 47.2209L108.848 45.4702L107.94 43.5654L103.085 42.8358L102.399 41.3969L107.369 42.1558C107.211 41.424 107.299 40.7149 107.633 40.0286C107.967 39.3423 108.473 38.838 109.149 38.5157C109.971 38.1237 110.807 38.0784 111.657 38.3795C112.52 38.6855 113.148 39.2496 113.54 40.0718L115.369 43.9088ZM108.771 42.3452L109.999 44.9214L113.576 43.2164L112.348 40.6401C112.126 40.1742 111.76 39.855 111.252 39.6825C110.744 39.5099 110.243 39.5413 109.75 39.7764C109.256 40.0116 108.912 40.3831 108.717 40.891C108.531 41.3945 108.549 41.8792 108.771 42.3452Z" fill="white"/>
<path d="M75.6735 62.6942C76.6894 63.2684 76.6894 64.7316 75.6735 65.3058L58.7381 74.878C57.7382 75.4432 56.5 74.7208 56.5 73.5722L56.5 54.4278C56.5 53.2792 57.7382 52.5568 58.7381 53.122L75.6735 62.6942Z" stroke="white"/>
</svg>
