<svg width="282" height="175" viewBox="0 0 282 175" fill="none" xmlns="http://www.w3.org/2000/svg">
<g opacity="0.2">
<path d="M0 7.65073C1.98572 1.84066 6.25134 -0.0715143 12.135 0.00203094C29.271 0.149121 46.407 0.149121 63.5431 0.00203094C67.8822 0.00203094 71.1918 1.39939 74.1336 4.70893C101.345 35.0831 128.704 65.3837 155.989 95.7579C160.917 101.274 160.99 105.687 155.989 111.202C128.704 141.503 101.345 171.804 74.1336 202.251C71.1918 205.487 67.8822 206.958 63.5431 206.958C46.407 206.885 29.271 206.811 12.135 206.958C6.25134 207.032 1.98572 205.12 0 199.31C0 198.059 0 196.735 0 195.485C1.32381 193.426 2.50054 191.22 4.04499 189.455C28.9033 161.728 53.8351 134.149 78.6934 106.496C79.5024 105.539 80.3114 104.583 81.2675 103.627C80.3849 102.598 79.6495 101.789 78.914 100.98C53.9822 73.0324 28.9768 45.3059 4.11853 17.5793C2.50054 15.8143 1.39736 13.5344 0 11.5486C0 10.2248 0 8.901 0 7.65073Z" fill="#1F2744"/>
<path d="M203.426 103.407C190.188 88.6975 177.171 74.2827 164.227 59.7943C151.356 45.453 138.486 31.1116 125.542 16.8439C122.6 13.6079 121.203 10.0042 123.041 5.81209C124.88 1.47292 128.631 0.0755615 133.117 0.0755615C150.988 0.0755615 168.86 0.0755615 186.805 0.0755615C190.409 0.0755615 193.35 1.39938 195.777 4.047C223.357 34.7154 251.01 65.3837 278.589 96.1256C283.149 101.2 283.149 105.834 278.516 110.982C250.936 141.577 223.43 172.171 195.851 202.84C193.424 205.561 190.556 206.885 186.952 206.885C169.007 206.885 150.988 206.885 133.043 206.885C125.248 206.885 120.394 200.633 123.041 194.088C123.703 192.543 124.806 191.072 125.983 189.822C151.062 161.949 176.141 134.075 201.22 106.128C201.808 105.245 202.544 104.436 203.426 103.407Z" fill="#1F2744"/>
</g>
</svg>
